<?xml version="1.0" encoding="UTF-8"?> <svg xmlns="http://www.w3.org/2000/svg" width="306" height="306" viewBox="0 0 306 306" fill="none"><path d="M256.041 0H49.9592C22.3675 0 0 22.3675 0 49.9592V256.041C0 283.633 22.3675 306 49.9592 306H256.041C283.633 306 306 283.633 306 256.041V49.9592C306 22.3675 283.633 0 256.041 0Z" fill="#24C780"></path><path d="M154.199 108.792C187.036 108.792 213.661 103.505 213.661 96.896C213.661 90.287 187.036 85 154.199 85C121.362 85 94.7371 90.287 94.7371 96.896C94.7371 103.505 121.362 108.792 154.199 108.792Z" fill="white"></path><path d="M213.661 131.921C213.661 138.53 187.036 143.817 154.199 143.817C121.362 143.817 94.7371 138.53 94.7371 131.921V121.347C94.7371 127.736 121.362 133.023 154.199 133.023C187.036 133.023 213.661 127.736 213.661 121.347V131.921Z" fill="white"></path><path d="M160.633 178.627H154.199C121.362 178.627 94.7371 173.34 94.7371 166.951V156.156C94.7371 162.765 121.362 168.052 154.199 168.052H163.074C163.074 168.052 161.965 170.916 161.299 173.339C160.633 175.763 160.633 178.627 160.633 178.627Z" fill="white"></path><path d="M175.277 212.991C168.621 213.432 161.521 213.652 154.199 213.652C121.362 213.652 94.7371 208.365 94.7371 201.976V191.182C94.7371 197.791 121.362 203.078 154.199 203.078H166.402C167.406 204.883 168.596 206.581 169.952 208.145C171.567 209.925 173.35 211.548 175.277 212.991Z" fill="white"></path><path d="M217.21 209.908C211.018 213.556 203.783 215.066 196.636 214.204C189.488 213.341 182.829 210.155 177.696 205.141C172.563 200.127 169.246 193.568 168.261 186.486C167.276 179.404 168.68 172.197 172.252 165.99C175.824 159.783 181.365 154.924 188.01 152.171C194.655 149.418 202.031 148.925 208.987 150.77C215.944 152.615 222.09 156.694 226.467 162.371C230.844 168.047 233.206 175.002 233.185 182.151C233.208 188.25 231.434 194.223 228.082 199.334L246.498 217.619L235.626 228.413L217.21 209.908ZM200.57 163.867C196.919 163.823 193.337 164.858 190.279 166.84C187.222 168.823 184.827 171.663 183.399 175C181.971 178.337 181.574 182.02 182.26 185.581C182.945 189.143 184.681 192.421 187.248 195C189.814 197.58 193.095 199.343 196.673 200.067C200.251 200.79 203.965 200.441 207.343 199.064C210.721 197.687 213.61 195.343 215.644 192.332C217.677 189.321 218.763 185.777 218.764 182.151C218.764 177.34 216.854 172.722 213.448 169.299C210.043 165.877 205.415 163.925 200.57 163.867Z" fill="white"></path></svg> 